<svg width="25" height="17" viewBox="0 0 25 17" fill="none" xmlns="http://www.w3.org/2000/svg">
<path d="M11.88 13.2V13.776C11.88 14.352 11.92 14.752 12 14.976C12.08 15.184 12.216 15.288 12.408 15.288C12.616 15.288 12.824 15.128 13.032 14.808C13.256 14.488 13.44 14.008 13.584 13.368L14.016 13.464C13.632 15.368 12.712 16.32 11.256 16.32C9.976 16.32 9.336 15.368 9.336 13.464V11.448C9.336 10.216 8.992 9.376 8.304 8.928C7.616 8.48 6.68 8.256 5.496 8.256C5.208 8.256 4.792 8.272 4.248 8.304V15.696H6.24V16.08H-1.07288e-06V15.696H1.752V0.864002H-1.07288e-06V0.480001H6.24V0.864002H4.248V7.848C6.312 7.848 7.96 7.328 9.192 6.288C10.44 5.248 11.064 4.056 11.064 2.712C11.064 2.024 10.864 1.512 10.464 1.176C10.08 0.840001 9.64 0.672001 9.144 0.672001C8.648 0.672001 8.248 0.816001 7.944 1.104C7.656 1.392 7.512 1.648 7.512 1.872C7.512 2.096 7.576 2.208 7.704 2.208C7.832 2.208 7.92 2.144 7.968 2.016C8.16 1.52 8.528 1.272 9.072 1.272C9.424 1.272 9.72 1.4 9.96 1.656C10.216 1.912 10.344 2.264 10.344 2.712C10.344 3.16 10.184 3.52 9.864 3.792C9.544 4.064 9.16 4.2 8.712 4.2C8.264 4.2 7.864 4.024 7.512 3.672C7.176 3.32 7.008 2.864 7.008 2.304C7.008 1.728 7.208 1.24 7.608 0.840001C8.008 0.440001 8.528 0.240001 9.168 0.240001C9.808 0.240001 10.352 0.464001 10.8 0.912001C11.264 1.344 11.496 1.928 11.496 2.664C11.496 4.552 10.464 6.12 8.4 7.368L8.496 7.56C9.568 7.624 10.336 7.936 10.8 8.496C11.296 9.104 11.592 9.712 11.688 10.32C11.816 11.28 11.88 12.24 11.88 13.2Z" fill="black"/>
<path d="M14.1832 13.992C14.4552 14.664 14.9672 15.184 15.7192 15.552C16.4712 15.92 17.3432 16.104 18.3352 16.104C19.3432 16.104 20.2392 15.824 21.0232 15.264C21.8072 14.704 22.1992 13.896 22.1992 12.84C22.1992 12.024 21.9192 11.344 21.3592 10.8C20.7992 10.256 20.1192 9.824 19.3192 9.504C18.5352 9.168 17.7432 8.816 16.9432 8.448C16.1592 8.08 15.4872 7.552 14.9272 6.864C14.3672 6.176 14.0872 5.328 14.0872 4.32C14.0872 2.992 14.5512 1.944 15.4792 1.176C16.4232 0.392001 17.5592 1.43051e-06 18.8872 1.43051e-06C20.2312 1.43051e-06 21.2952 0.288002 22.0792 0.864002C22.8632 1.424 23.2552 2.136 23.2552 3C23.2552 3.544 23.0792 3.992 22.7272 4.344C22.3912 4.696 21.9992 4.872 21.5512 4.872C21.1032 4.872 20.7192 4.736 20.3992 4.464C20.0792 4.192 19.9192 3.832 19.9192 3.384C19.9192 2.936 20.0392 2.584 20.2792 2.328C20.5352 2.072 20.8392 1.944 21.1912 1.944C21.7512 1.944 22.1272 2.192 22.3192 2.688C22.3672 2.816 22.4472 2.88 22.5592 2.88C22.7352 2.88 22.8072 2.8 22.7752 2.64C22.6952 2.064 22.3352 1.56 21.6952 1.128C21.0712 0.680001 20.2792 0.456001 19.3192 0.456001C18.3752 0.456001 17.5672 0.720001 16.8952 1.248C16.2392 1.76 15.9112 2.432 15.9112 3.264C15.9112 4.08 16.1912 4.76 16.7512 5.304C17.3112 5.848 17.9832 6.288 18.7672 6.624C19.5672 6.944 20.3592 7.288 21.1432 7.656C21.9432 8.024 22.6232 8.552 23.1832 9.24C23.7432 9.928 24.0232 10.776 24.0232 11.784C24.0232 13.32 23.4632 14.504 22.3432 15.336C21.2232 16.152 19.9512 16.56 18.5272 16.56C17.1192 16.56 15.9352 16.248 14.9752 15.624C14.0312 14.984 13.5592 14.12 13.5592 13.032C13.5592 12.488 13.7272 12.04 14.0632 11.688C14.4152 11.336 14.8152 11.16 15.2632 11.16C15.7112 11.16 16.0952 11.296 16.4152 11.568C16.7352 11.84 16.8952 12.2 16.8952 12.648C16.8952 13.096 16.7672 13.448 16.5112 13.704C16.2712 13.96 15.9752 14.088 15.6232 14.088C15.0472 14.088 14.6632 13.84 14.4712 13.344C14.4232 13.216 14.3352 13.152 14.2072 13.152C14.0792 13.152 14.0152 13.216 14.0152 13.344C14.0152 13.472 14.0712 13.688 14.1832 13.992Z" fill="#64B900"/>
</svg>
